<mxfile host="app.diagrams.net" agent="Mozilla/5.0 (Windows NT 10.0; Win64; x64) AppleWebKit/537.36 (KHTML, like Gecko) Chrome/130.0.0.0 Safari/537.36" version="24.7.17">
  <diagram name="Сторінка-1" id="5YS6wOeaFaQl2yktIoka">
    <mxGraphModel grid="1" page="1" gridSize="10" guides="1" tooltips="1" connect="1" arrows="1" fold="1" pageScale="1" pageWidth="827" pageHeight="1169" math="0" shadow="0">
      <root>
        <mxCell id="0" />
        <mxCell id="1" parent="0" />
        <mxCell id="2fQoGLE08OtdvYTE3jA5-4" value="" style="edgeStyle=orthogonalEdgeStyle;rounded=0;orthogonalLoop=1;jettySize=auto;html=1;" edge="1" parent="1" source="2fQoGLE08OtdvYTE3jA5-2" target="2fQoGLE08OtdvYTE3jA5-3">
          <mxGeometry relative="1" as="geometry" />
        </mxCell>
        <mxCell id="2fQoGLE08OtdvYTE3jA5-2" value="&lt;font style=&quot;font-size: 18px;&quot;&gt;Start&lt;/font&gt;" style="ellipse;whiteSpace=wrap;html=1;" vertex="1" parent="1">
          <mxGeometry x="140" y="10" width="120" height="80" as="geometry" />
        </mxCell>
        <mxCell id="2fQoGLE08OtdvYTE3jA5-6" value="" style="edgeStyle=orthogonalEdgeStyle;rounded=0;orthogonalLoop=1;jettySize=auto;html=1;" edge="1" parent="1" source="2fQoGLE08OtdvYTE3jA5-3" target="2fQoGLE08OtdvYTE3jA5-5">
          <mxGeometry relative="1" as="geometry" />
        </mxCell>
        <mxCell id="2fQoGLE08OtdvYTE3jA5-3" value="&lt;font style=&quot;font-size: 18px;&quot;&gt;Input&lt;/font&gt;" style="shape=parallelogram;perimeter=parallelogramPerimeter;whiteSpace=wrap;html=1;fixedSize=1;" vertex="1" parent="1">
          <mxGeometry x="140" y="130" width="120" height="60" as="geometry" />
        </mxCell>
        <mxCell id="2fQoGLE08OtdvYTE3jA5-8" value="" style="edgeStyle=orthogonalEdgeStyle;rounded=0;orthogonalLoop=1;jettySize=auto;html=1;" edge="1" parent="1" source="2fQoGLE08OtdvYTE3jA5-5" target="2fQoGLE08OtdvYTE3jA5-7">
          <mxGeometry relative="1" as="geometry" />
        </mxCell>
        <mxCell id="2fQoGLE08OtdvYTE3jA5-11" value="" style="edgeStyle=orthogonalEdgeStyle;rounded=0;orthogonalLoop=1;jettySize=auto;html=1;entryX=0.5;entryY=0;entryDx=0;entryDy=0;" edge="1" parent="1" source="2fQoGLE08OtdvYTE3jA5-5" target="2fQoGLE08OtdvYTE3jA5-15">
          <mxGeometry relative="1" as="geometry">
            <mxPoint x="200" y="370" as="targetPoint" />
          </mxGeometry>
        </mxCell>
        <mxCell id="2fQoGLE08OtdvYTE3jA5-5" value="Довжина сторони першого куба &amp;lt;=0" style="rhombus;whiteSpace=wrap;html=1;" vertex="1" parent="1">
          <mxGeometry x="140" y="220" width="120" height="110" as="geometry" />
        </mxCell>
        <mxCell id="2fQoGLE08OtdvYTE3jA5-7" value="ERROR" style="shape=parallelogram;perimeter=parallelogramPerimeter;whiteSpace=wrap;html=1;fixedSize=1;" vertex="1" parent="1">
          <mxGeometry x="320" y="245" width="120" height="60" as="geometry" />
        </mxCell>
        <mxCell id="2fQoGLE08OtdvYTE3jA5-9" value="TRUE" style="text;strokeColor=none;align=center;fillColor=none;html=1;verticalAlign=middle;whiteSpace=wrap;rounded=0;" vertex="1" parent="1">
          <mxGeometry x="260" y="245" width="60" height="30" as="geometry" />
        </mxCell>
        <mxCell id="2fQoGLE08OtdvYTE3jA5-12" value="FALSE" style="text;strokeColor=none;align=center;fillColor=none;html=1;verticalAlign=middle;whiteSpace=wrap;rounded=0;" vertex="1" parent="1">
          <mxGeometry x="210" y="330" width="60" height="30" as="geometry" />
        </mxCell>
        <mxCell id="2fQoGLE08OtdvYTE3jA5-17" value="" style="edgeStyle=orthogonalEdgeStyle;rounded=0;orthogonalLoop=1;jettySize=auto;html=1;" edge="1" parent="1" source="2fQoGLE08OtdvYTE3jA5-15" target="2fQoGLE08OtdvYTE3jA5-16">
          <mxGeometry relative="1" as="geometry" />
        </mxCell>
        <mxCell id="2fQoGLE08OtdvYTE3jA5-15" value="&lt;font style=&quot;font-size: 18px;&quot;&gt;і = 2, 5&lt;/font&gt;" style="shape=hexagon;perimeter=hexagonPerimeter2;whiteSpace=wrap;html=1;fixedSize=1;" vertex="1" parent="1">
          <mxGeometry x="145" y="360" width="110" height="73.33" as="geometry" />
        </mxCell>
        <mxCell id="2fQoGLE08OtdvYTE3jA5-19" value="" style="edgeStyle=orthogonalEdgeStyle;rounded=0;orthogonalLoop=1;jettySize=auto;html=1;" edge="1" parent="1" source="2fQoGLE08OtdvYTE3jA5-16" target="2fQoGLE08OtdvYTE3jA5-18">
          <mxGeometry relative="1" as="geometry" />
        </mxCell>
        <mxCell id="2fQoGLE08OtdvYTE3jA5-25" value="" style="edgeStyle=orthogonalEdgeStyle;rounded=0;orthogonalLoop=1;jettySize=auto;html=1;" edge="1" parent="1" source="2fQoGLE08OtdvYTE3jA5-16" target="2fQoGLE08OtdvYTE3jA5-24">
          <mxGeometry relative="1" as="geometry" />
        </mxCell>
        <mxCell id="2fQoGLE08OtdvYTE3jA5-16" value="Довжина сторони наступного куба &amp;lt;=0" style="rhombus;whiteSpace=wrap;html=1;" vertex="1" parent="1">
          <mxGeometry x="130" y="495" width="140" height="110" as="geometry" />
        </mxCell>
        <mxCell id="2fQoGLE08OtdvYTE3jA5-18" value="ERROR" style="shape=parallelogram;perimeter=parallelogramPerimeter;whiteSpace=wrap;html=1;fixedSize=1;" vertex="1" parent="1">
          <mxGeometry x="340" y="520" width="120" height="60" as="geometry" />
        </mxCell>
        <mxCell id="2fQoGLE08OtdvYTE3jA5-20" value="TRUE" style="text;strokeColor=none;align=center;fillColor=none;html=1;verticalAlign=middle;whiteSpace=wrap;rounded=0;" vertex="1" parent="1">
          <mxGeometry x="280" y="520" width="60" height="30" as="geometry" />
        </mxCell>
        <mxCell id="2fQoGLE08OtdvYTE3jA5-27" value="" style="edgeStyle=orthogonalEdgeStyle;rounded=0;orthogonalLoop=1;jettySize=auto;html=1;" edge="1" parent="1" source="2fQoGLE08OtdvYTE3jA5-24" target="2fQoGLE08OtdvYTE3jA5-26">
          <mxGeometry relative="1" as="geometry" />
        </mxCell>
        <mxCell id="2fQoGLE08OtdvYTE3jA5-31" value="" style="edgeStyle=orthogonalEdgeStyle;rounded=0;orthogonalLoop=1;jettySize=auto;html=1;" edge="1" parent="1" source="2fQoGLE08OtdvYTE3jA5-24" target="2fQoGLE08OtdvYTE3jA5-30">
          <mxGeometry relative="1" as="geometry" />
        </mxCell>
        <mxCell id="2fQoGLE08OtdvYTE3jA5-24" value="Довжина сторони цього ж куба &amp;gt; Довжину попереднього куба" style="rhombus;whiteSpace=wrap;html=1;" vertex="1" parent="1">
          <mxGeometry x="85" y="640" width="230" height="170" as="geometry" />
        </mxCell>
        <mxCell id="2fQoGLE08OtdvYTE3jA5-26" value="LOSS" style="shape=parallelogram;perimeter=parallelogramPerimeter;whiteSpace=wrap;html=1;fixedSize=1;" vertex="1" parent="1">
          <mxGeometry x="354" y="695" width="120" height="60" as="geometry" />
        </mxCell>
        <mxCell id="2fQoGLE08OtdvYTE3jA5-28" value="TRUE" style="text;strokeColor=none;align=center;fillColor=none;html=1;verticalAlign=middle;whiteSpace=wrap;rounded=0;" vertex="1" parent="1">
          <mxGeometry x="310" y="695" width="60" height="30" as="geometry" />
        </mxCell>
        <mxCell id="2fQoGLE08OtdvYTE3jA5-29" value="FALSE" style="text;strokeColor=none;align=center;fillColor=none;html=1;verticalAlign=middle;whiteSpace=wrap;rounded=0;" vertex="1" parent="1">
          <mxGeometry x="140" y="605" width="60" height="30" as="geometry" />
        </mxCell>
        <mxCell id="2fQoGLE08OtdvYTE3jA5-30" value="Присвоюємо місце куба як теперішню вершину" style="whiteSpace=wrap;html=1;" vertex="1" parent="1">
          <mxGeometry x="140" y="860" width="120" height="60" as="geometry" />
        </mxCell>
        <mxCell id="2fQoGLE08OtdvYTE3jA5-33" value="FALSE" style="text;strokeColor=none;align=center;fillColor=none;html=1;verticalAlign=middle;whiteSpace=wrap;rounded=0;" vertex="1" parent="1">
          <mxGeometry x="200" y="810" width="60" height="30" as="geometry" />
        </mxCell>
        <mxCell id="2fQoGLE08OtdvYTE3jA5-34" value="" style="endArrow=none;html=1;rounded=0;" edge="1" parent="1">
          <mxGeometry width="50" height="50" relative="1" as="geometry">
            <mxPoint x="30" y="890" as="sourcePoint" />
            <mxPoint x="140" y="890" as="targetPoint" />
          </mxGeometry>
        </mxCell>
        <mxCell id="2fQoGLE08OtdvYTE3jA5-35" value="" style="endArrow=none;html=1;rounded=0;" edge="1" parent="1">
          <mxGeometry width="50" height="50" relative="1" as="geometry">
            <mxPoint x="30" y="890" as="sourcePoint" />
            <mxPoint x="30" y="400" as="targetPoint" />
          </mxGeometry>
        </mxCell>
        <mxCell id="2fQoGLE08OtdvYTE3jA5-36" value="" style="endArrow=classic;html=1;rounded=0;entryX=0;entryY=0.5;entryDx=0;entryDy=0;" edge="1" parent="1" target="2fQoGLE08OtdvYTE3jA5-15">
          <mxGeometry width="50" height="50" relative="1" as="geometry">
            <mxPoint x="30" y="400" as="sourcePoint" />
            <mxPoint x="145" y="406.66" as="targetPoint" />
          </mxGeometry>
        </mxCell>
        <mxCell id="2fQoGLE08OtdvYTE3jA5-38" value="" style="endArrow=none;html=1;rounded=0;" edge="1" parent="1">
          <mxGeometry width="50" height="50" relative="1" as="geometry">
            <mxPoint x="255" y="396.31" as="sourcePoint" />
            <mxPoint x="550" y="400" as="targetPoint" />
          </mxGeometry>
        </mxCell>
        <mxCell id="2fQoGLE08OtdvYTE3jA5-40" value="FALSE" style="text;strokeColor=none;align=center;fillColor=none;html=1;verticalAlign=middle;whiteSpace=wrap;rounded=0;" vertex="1" parent="1">
          <mxGeometry x="280" y="360" width="60" height="30" as="geometry" />
        </mxCell>
        <mxCell id="2fQoGLE08OtdvYTE3jA5-41" value="TRUE" style="text;strokeColor=none;align=center;fillColor=none;html=1;verticalAlign=middle;whiteSpace=wrap;rounded=0;" vertex="1" parent="1">
          <mxGeometry x="195" y="450" width="60" height="30" as="geometry" />
        </mxCell>
        <mxCell id="2fQoGLE08OtdvYTE3jA5-42" value="" style="endArrow=classic;html=1;rounded=0;" edge="1" parent="1">
          <mxGeometry width="50" height="50" relative="1" as="geometry">
            <mxPoint x="550" y="400" as="sourcePoint" />
            <mxPoint x="550" y="540" as="targetPoint" />
          </mxGeometry>
        </mxCell>
        <mxCell id="2fQoGLE08OtdvYTE3jA5-45" value="" style="edgeStyle=orthogonalEdgeStyle;rounded=0;orthogonalLoop=1;jettySize=auto;html=1;" edge="1" parent="1" source="2fQoGLE08OtdvYTE3jA5-43" target="2fQoGLE08OtdvYTE3jA5-44">
          <mxGeometry relative="1" as="geometry" />
        </mxCell>
        <mxCell id="2fQoGLE08OtdvYTE3jA5-43" value="WIN" style="shape=parallelogram;perimeter=parallelogramPerimeter;whiteSpace=wrap;html=1;fixedSize=1;" vertex="1" parent="1">
          <mxGeometry x="490" y="540" width="110" height="40" as="geometry" />
        </mxCell>
        <mxCell id="2fQoGLE08OtdvYTE3jA5-44" value="&lt;font style=&quot;font-size: 18px;&quot;&gt;End&lt;/font&gt;" style="ellipse;whiteSpace=wrap;html=1;" vertex="1" parent="1">
          <mxGeometry x="485" y="615" width="120" height="80" as="geometry" />
        </mxCell>
      </root>
    </mxGraphModel>
  </diagram>
</mxfile>
